<?xml version="1.0" encoding="utf-8"?>
<!-- Generator: Adobe Illustrator 28.1.0, SVG Export Plug-In . SVG Version: 6.00 Build 0)  -->
<svg version="1.1" id="圖層_1" xmlns="http://www.w3.org/2000/svg" xmlns:xlink="http://www.w3.org/1999/xlink" x="0px" y="0px"
	 viewBox="0 0 370 194.7" style="enable-background:new 0 0 370 194.7;" xml:space="preserve">
<style type="text/css">
	.st0{fill:#EAEAEA;}
	.st1{fill:none;stroke:#000000;stroke-miterlimit:10;}
	.st2{fill:none;stroke:#C9CACA;stroke-width:0.2835;stroke-miterlimit:10;}
	.st3{fill:url(#SVGID_1_);}
	.st4{fill:url(#SVGID_00000162320487601896266390000008123733909970043576_);}
	.st5{fill:url(#SVGID_00000086678987282402102010000003005242831734939020_);}
	.st6{fill:url(#SVGID_00000172402241328796153500000013843088174853278356_);}
	.st7{fill:url(#SVGID_00000000185796241188039630000013452167126787446962_);}
	.st8{fill:#070001;}
	.st9{fill:url(#SVGID_00000057117599854159998730000006334321854317861272_);}
	.st10{fill:url(#SVGID_00000005981118995762353670000008466871711790749350_);}
	.st11{fill:url(#SVGID_00000025431690564359629130000006136091390293067445_);}
	.st12{fill:url(#SVGID_00000155130235406209434320000012981647425118807954_);}
	.st13{fill:url(#SVGID_00000125581309645952758870000017394987683722566802_);}
</style>
<path class="st0" d="M277.1,60.2c-66.7,33.3-154.9,95.6-154.9,95.6c25.3,16.1,89.3,39,134.1,38.9c49.9,0,97.4-124.9,97.4-124.9
	c-86.2,35.3-143.1,65.7-143.1,65.7l90.5-27.7c0,0-28.4,64.8-61.4,64.8c-38.1,0-82.4-17.9-82.4-17.9C233.9,102.5,351.8,55,358.3,52.1
	c6.3-2.9,11.6-13.9,11.6-18.9C366.6,33.1,321.4,38.1,277.1,60.2z"/>
<path class="st0" d="M0,87.6c0,0,12.4,34.3,23.9,45.8c11.5,11.5,52.1,22.4,52.1,22.4L0,87.6z"/>
<path class="st1" d="M353.7,0c-17,6.6-39.7,12.2-79.6,33.1c-42.4,22.2-84.9,52.6-133.1,89.8c-29.2,22.5-35.3,30.4-30.4,39.4
	c5.3,9.9,26,32.4,26,32.4s-28-11.4-44.3-33.6c-10.6-14.3-40.8-61.8-40.8-61.8s27.7,15.6,45.4,21.4c11.2,3.9,13.1,2.2,20.9-5.3
	c5.1-4.9,82.8-84.2,109.3-95.7C259,5.8,301.8,0,330.6,0C340.3,0,349.4,0,353.7,0z"/>
<path class="st0" d="M353.7,0c-17,6.6-39.7,12.2-79.6,33.1c-42.4,22.2-84.9,52.6-133.1,89.8c-29.2,22.5-35.3,30.4-30.4,39.4
	c5.3,9.9,26,32.4,26,32.4s-28-11.4-44.3-33.6c-10.6-14.3-40.8-61.8-40.8-61.8s27.7,15.6,45.4,21.4c11.2,3.9,13.1,2.2,20.9-5.3
	c5.1-4.9,82.8-84.2,109.3-95.7C259,5.8,301.8,0,330.6,0C340.3,0,349.4,0,353.7,0z"/>
<g>
	<path class="st2" d="M370,33.1c0,5.1-5.3,16.1-11.6,18.9c-6.5,3-124.4,50.4-201.1,102.7c0,0,44.4,17.9,82.4,17.9
		c32.9,0,61.4-64.8,61.4-64.8l-90.5,27.7c0,0,57-30.4,143.1-65.7c0,0-47.5,124.9-97.4,124.9c-44.8,0-108.8-22.9-134.1-38.9
		c0,0,88.2-62.3,154.9-95.6C321.4,38.1,366.6,33.1,370,33.1z"/>
</g>
<linearGradient id="SVGID_1_" gradientUnits="userSpaceOnUse" x1="141.0844" y1="139.6223" x2="319.1961" y2="139.6223">
	<stop  offset="0.5766" style="stop-color:#070001"/>
	<stop  offset="0.8327" style="stop-color:#070001;stop-opacity:0"/>
</linearGradient>
<path class="st3" d="M209.4,177.7c-36.2-8.3-68.4-21.1-68.4-21.1l16.2-1.8c0,0,44.4,17.9,82.4,17.9c32.9,0,61.4-64.8,61.4-64.8
	l18.2-9.6c-10.1,24.4-21.3,43.5-36,61.6C268.4,178,245.7,186,209.4,177.7z"/>
<linearGradient id="SVGID_00000063595485910987123740000011951551189390103955_" gradientUnits="userSpaceOnUse" x1="122.1865" y1="94.8659" x2="369.9668" y2="94.8659">
	<stop  offset="6.510416e-02" style="stop-color:#070001"/>
	<stop  offset="0.2153" style="stop-color:#070001;stop-opacity:0"/>
	<stop  offset="0.4503" style="stop-color:#070001;stop-opacity:0"/>
	<stop  offset="0.6311" style="stop-color:#070001"/>
</linearGradient>
<path style="fill:url(#SVGID_00000063595485910987123740000011951551189390103955_);" d="M277.1,60.2
	c-66.7,33.3-154.9,95.6-154.9,95.6l18.9,0.8c62.5-46.8,123.8-72.4,165.9-90.2c26-11,42.3-16.8,49.5-20.9C361,42.9,370,33.1,370,33.1
	C366.6,33.1,321.4,38.1,277.1,60.2z"/>
<linearGradient id="SVGID_00000037691708495702327660000015749615443119993000_" gradientUnits="userSpaceOnUse" x1="4.390118e-05" y1="121.7082" x2="75.9406" y2="121.7082">
	<stop  offset="0.2722" style="stop-color:#070001;stop-opacity:0"/>
	<stop  offset="0.6579" style="stop-color:#070001"/>
</linearGradient>
<path style="fill:url(#SVGID_00000037691708495702327660000015749615443119993000_);" d="M29.4,126.2c14.3,11.4,46.5,29.5,46.5,29.5
	L0,87.6C0,87.6,15.1,114.8,29.4,126.2z"/>
<linearGradient id="SVGID_00000022523151442868232010000014889076399390149769_" gradientUnits="userSpaceOnUse" x1="162.115" y1="201.5296" x2="224.9016" y2="-34.2824">
	<stop  offset="0.112" style="stop-color:#070001"/>
	<stop  offset="0.2311" style="stop-color:#070001;stop-opacity:0"/>
	<stop  offset="0.3858" style="stop-color:#070001;stop-opacity:0"/>
	<stop  offset="0.5371" style="stop-color:#070001"/>
</linearGradient>
<path style="fill:url(#SVGID_00000022523151442868232010000014889076399390149769_);" d="M102.1,153.6c2.5-16.1,26.2-36.7,57.4-63.2
	s60-48.8,73.9-56.4c13.9-7.6,42.9-18.4,64.8-24.3c22-5.9,55.4-9.7,55.4-9.7c-4.2,0-13.3,0-23,0C301.8,0,259,5.8,227.1,19.7
	c-26.5,11.5-104.2,90.8-109.3,95.7c-0.4,0.4-0.8,0.8-1.2,1.1l0,0c-9,8.9-12.3,14.9-23,15c-9.9,0.1-42.2-32.2-42.2-32.2
	s30.2,47.4,40.8,61.8c16.3,22.1,44.3,33.6,44.3,33.6C118.6,182.1,99.6,169.8,102.1,153.6z"/>
<linearGradient id="SVGID_00000091730947300209695190000004771135620782824895_" gradientUnits="userSpaceOnUse" x1="210.5404" y1="102.723" x2="353.6591" y2="102.723">
	<stop  offset="0.1302" style="stop-color:#070001"/>
	<stop  offset="0.3525" style="stop-color:#070001;stop-opacity:0"/>
	<stop  offset="0.666" style="stop-color:#070001;stop-opacity:0"/>
	<stop  offset="0.9271" style="stop-color:#070001"/>
</linearGradient>
<path style="fill:url(#SVGID_00000091730947300209695190000004771135620782824895_);" d="M210.5,135.6L210.5,135.6L210.5,135.6
	c47.6-18.8,108.7-37.3,108.7-37.3l34.5-28.4C267.5,105.2,210.5,135.6,210.5,135.6z"/>
<path class="st8" d="M210.5,135.6c47.6-18.8,108.7-37.3,108.7-37.3l-18.2,9.6L210.5,135.6z"/>
<linearGradient id="SVGID_00000078744373672380973350000014104169669446478209_" gradientUnits="userSpaceOnUse" x1="0" y1="121.7081" x2="75.9406" y2="121.7081">
	<stop  offset="0.3672" style="stop-color:#070001"/>
	<stop  offset="0.6354" style="stop-color:#070001;stop-opacity:0"/>
</linearGradient>
<path style="fill:url(#SVGID_00000078744373672380973350000014104169669446478209_);" d="M75.9,155.8c0,0-32.2-18.1-46.5-29.5
	C15.1,114.8,0,87.6,0,87.6s12.4,34.3,23.9,45.8C35.4,144.9,75.9,155.8,75.9,155.8z"/>
<linearGradient id="SVGID_00000139990722910563854470000010133823115895569309_" gradientUnits="userSpaceOnUse" x1="101.8889" y1="97.3597" x2="353.6591" y2="97.3597">
	<stop  offset="3.385391e-02" style="stop-color:#070001;stop-opacity:0"/>
	<stop  offset="0.1515" style="stop-color:#070001"/>
	<stop  offset="0.2422" style="stop-color:#070001"/>
	<stop  offset="0.4327" style="stop-color:#070001;stop-opacity:0"/>
</linearGradient>
<path style="fill:url(#SVGID_00000139990722910563854470000010133823115895569309_);" d="M140.9,122.9
	c48.2-37.2,90.7-67.6,133.1-89.8C314,12.2,336.6,6.6,353.7,0c0,0-33.5,3.8-55.4,9.7s-50.9,16.7-64.8,24.3
	c-13.9,7.6-42.7,29.8-73.9,56.4c-31.2,26.5-54.9,47.1-57.4,63.2c-2.5,16.1,16.5,28.5,34.4,41.1c0,0-20.7-22.5-26-32.4
	C105.6,153.3,111.7,145.5,140.9,122.9z"/>
<g>
	
		<linearGradient id="SVGID_00000073681520928385160270000015133625751948564382_" gradientUnits="userSpaceOnUse" x1="51.4314" y1="115.4691" x2="117.8053" y2="115.4691">
		<stop  offset="0.5833" style="stop-color:#070001"/>
		<stop  offset="0.8388" style="stop-color:#070001;stop-opacity:0"/>
	</linearGradient>
	<path style="fill:url(#SVGID_00000073681520928385160270000015133625751948564382_);" d="M117.8,115.4c-7.8,7.5-9.7,9.2-20.9,5.3
		C79.1,115,51.4,99.4,51.4,99.4l0,0c0,0,32.3,32.3,42.2,32.2c10.7-0.1,14-6.1,23-15l0,0C117,116.2,117.4,115.8,117.8,115.4"/>
</g>
<g>
	
		<linearGradient id="SVGID_00000085929616096972860480000013717454495485855414_" gradientUnits="userSpaceOnUse" x1="141.0844" y1="94.8657" x2="369.9668" y2="94.8657">
		<stop  offset="6.231728e-02" style="stop-color:#070001;stop-opacity:0"/>
		<stop  offset="0.2166" style="stop-color:#070001"/>
		<stop  offset="0.3307" style="stop-color:#070001"/>
		<stop  offset="0.8493" style="stop-color:#070001;stop-opacity:0"/>
	</linearGradient>
	<path style="fill:url(#SVGID_00000085929616096972860480000013717454495485855414_);" d="M356.5,45.5c-7.2,4.2-23.5,9.9-49.5,20.9
		c-42.1,17.8-103.3,43.4-165.9,90.2l16.2-1.8C234,102.5,351.8,55,358.3,52.1c6.3-2.9,11.6-13.9,11.6-18.9
		C370,33.1,361,42.9,356.5,45.5z"/>
</g>
<linearGradient id="SVGID_00000054264757484863634500000008621455680297140632_" gradientUnits="userSpaceOnUse" x1="198.5177" y1="194.2918" x2="278.6049" y2="32.6655">
	<stop  offset="0" style="stop-color:#070001"/>
	<stop  offset="6.514885e-02" style="stop-color:#070001;stop-opacity:0.8587"/>
	<stop  offset="0.4609" style="stop-color:#070001;stop-opacity:0"/>
	<stop  offset="0.7896" style="stop-color:#070001"/>
</linearGradient>
<path style="fill:url(#SVGID_00000054264757484863634500000008621455680297140632_);" d="M283.1,159.9
	c-14.7,18.1-37.5,26.2-73.7,17.8c-36.2-8.3-68.4-21.1-68.4-21.1l-18.9-0.8c25.6,16,89.6,39,134.1,38.9c49.9,0,97.4-124.9,97.4-124.9
	c0,0-0.1,0-0.1,0l-34.4,28.4C309.1,122.7,297.8,141.7,283.1,159.9z"/>
</svg>
