<?xml version="1.0" encoding="utf-8"?>
<!-- Generator: Adobe Illustrator 28.1.0, SVG Export Plug-In . SVG Version: 6.00 Build 0)  -->
<svg version="1.1" id="圖層_1" xmlns="http://www.w3.org/2000/svg" xmlns:xlink="http://www.w3.org/1999/xlink" x="0px" y="0px"
	 viewBox="0 0 286.7 72" style="enable-background:new 0 0 286.7 72;" xml:space="preserve">
<style type="text/css">
	.st0{fill:#FFFFFF;}
	.st1{fill:none;stroke:#FFFFFF;stroke-width:2.7;}
	.st2{fill:#9D9FA2;}
</style>
<g>
	<g id="Layer_1">
		<path class="st0" d="M16.1,16.1h-3.8l-1.1-2.8H4.8l-1.1,2.8H0L5.7,2h4.1L16.1,16.1z M7.7,5.4l-2,5.5h4.4L7.7,5.4L7.7,5.4z"/>
		<polygon class="st0" points="29.8,2 32.8,2 32.8,16.2 29.3,16.2 29.3,7.3 25.5,11.8 25,11.8 21.2,7.3 21.2,16.2 17.7,16.2 17.7,2 
			20.7,2 25.3,7.3 		"/>
		<path class="st0" d="M41.7,2.1c5.1,0,7.8,3.2,7.8,7s-2.5,7-8.2,7h-5.8V2.1C35.5,2.1,41.7,2.1,41.7,2.1z M39,13.7h2.3
			c3.5,0,4.6-2.4,4.6-4.4s-1.3-4.4-4.6-4.4H39V13.7L39,13.7L39,13.7z"/>
		<polygon class="st0" points="63.8,5.5 56.5,5.5 52.1,1.1 68.3,1.1 68.3,17.2 63.8,12.8 		"/>
		<polygon class="st0" points="56.5,12.8 56.5,6.3 51.9,10.9 51.9,17.3 58.3,17.3 62.9,12.8 		"/>
		<line class="st1" x1="77.6" y1="1" x2="77.6" y2="70.7"/>
		<g>
			<path class="st0" d="M28.5,38.3c-0.8,0-1.8-0.2-2.4-0.5l0.3-1.2c0.6,0.2,1.3,0.4,2.1,0.4c1.3,0,1.8-0.6,2-2
				c0-0.4,0.1-0.8,0.1-1.1c0-0.7-0.3-1.1-1.3-1.7c-1.3-0.7-1.8-1.3-1.8-2.5s0-0.6,0.1-1c0.4-2.1,1.2-2.9,3.1-2.9
				c1.9,0,1.8,0.2,2.6,0.6l-0.3,1.2c-0.7-0.3-1.5-0.5-2.3-0.5c-1.1,0-1.5,0.6-1.8,1.9c0,0.3,0,0.5,0,0.6c0,0.6,0.4,0.9,1.2,1.5
				c1.3,0.8,2,1.4,2,2.7c0,1.3,0,0.8-0.1,1.3c-0.4,2-1.2,3.1-3.4,3.1H28.5L28.5,38.3z"/>
			<path class="st0" d="M32.8,35.6c0-0.3,0-0.5,0-0.7l1-5.6c0.4-2.1,1.4-3.4,3.7-3.4s3,0.8,3,2.6c0,1.8,0,0.6,0,0.8l-1,5.6
				c-0.4,1.9-1.4,3.3-3.7,3.3S32.8,37.3,32.8,35.6z M35.9,37.1c1.2,0,1.9-0.6,2.2-2.1l1-5.6c0-0.2,0-0.5,0-0.7c0-1-0.7-1.4-1.7-1.4
				c-1,0-1.9,0.6-2.2,2.2l-1,5.6c0,0.4,0,0.6,0,0.8C34.2,36.6,34.8,37.1,35.9,37.1L35.9,37.1L35.9,37.1z"/>
			<path class="st0" d="M40.4,35.9c0-0.3,0-0.6,0-0.8l1-5.8c0.4-2.4,1.1-3.3,3.3-3.3c2.3,0,1.8,0.2,2.4,0.4l-0.3,1.2
				c-0.6-0.2-1.3-0.4-2-0.4c-1.3,0-1.7,0.6-2,2l-1,5.8c0,0.2,0,0.6,0,0.8c0,0.9,0.5,1.2,1.6,1.2s1.3-0.1,1.8-0.3V38
				c-0.5,0.1-1.3,0.3-2.1,0.3C41.3,38.3,40.4,37.4,40.4,35.9z"/>
			<path class="st0" d="M46.8,38L49,26.2h1.4L48.3,38H46.8z M49.5,32l3.9-5.8H55l-4.1,6L53,38h-1.4L49.5,32L49.5,32L49.5,32z"/>
			<path class="st0" d="M54,38l2.1-11.8h5.4l-0.2,1.2h-3.9l-0.7,4h3.7l-0.2,1.2h-3.7l-0.8,4.2h3.9L59.4,38C59.4,38,54,38,54,38z"/>
			<path class="st0" d="M65.7,27.3L63.8,38h-1.4l1.9-10.6H62l0.2-1.2h6.1l-0.2,1.2C68.1,27.3,65.7,27.3,65.7,27.3z"/>
			<path class="st0" d="M47.9,51.8h-3.2l-1.1,3h-1.4l4.9-11.8h1.6l0.7,11.8H48C48,54.7,47.9,51.8,47.9,51.8z M45.2,50.6h2.7
				l-0.2-6.5L45.2,50.6z"/>
			<path class="st0" d="M53.6,45.2l-1.8,9.5h-1.3l2.4-11.8h1.5l1.1,8.1l3.9-8.1h1.6l-1.8,11.8h-1.3l1.5-9.4l-3.4,6.8h-1.5l-1-6.8
				C53.8,45.2,53.6,45.2,53.6,45.2z"/>
			<path class="st0" d="M65.7,51.1v-0.4c0-1-0.7-1.3-1.8-1.3h-1.8l1.1-6.5h4.9L67.9,44h-3.6l-0.7,4.1h0.7c1.6,0,2.7,0.8,2.7,2.3
				s0,0.4,0,0.6L66.9,52c-0.4,1.9-1.2,3-3.6,3c-2.4,0-1.8-0.2-2.3-0.4l0.3-1.1c0.5,0.2,1.3,0.4,2.1,0.4c1.4,0,2-0.6,2.2-1.8
				L65.7,51.1L65.7,51.1L65.7,51.1z"/>
		</g>
		<g>
			<path class="st2" d="M131,70.7h-12.5l-9.4-23.5l-9.4,23.5H87.2l15.6-35.2L88,1.3h12.4l8.7,22.5l8.7-22.5h12.4l-14.9,34.2
				L131,70.7L131,70.7z"/>
			<path class="st2" d="M131.7,50.5c0-7.8,4.1-12.1,9.4-15.2c-5.8-4.1-8-7.8-8-14.1v-4.9c0-10.1,5.4-16.3,17.6-16.3
				s17.5,6.1,17.5,16.3v4.9c0,6.3-2.2,10-8,14.1c5.3,3.1,9.5,7.4,9.5,15.2v5.2c0,11.1-7.1,16.3-19,16.3c-11.8,0-19-5.1-19-16.3
				L131.7,50.5L131.7,50.5L131.7,50.5z M150.8,62.6c5.2,0,7.4-2.1,7.4-7.2v-4.3c0-5.1-1.3-7-7.4-10.5c-6.1,3.5-7.5,5.4-7.5,10.5v4.3
				C143.2,60.6,145.4,62.6,150.8,62.6z M156.8,21.3v-5.4c0-4.5-1.5-6.6-6.1-6.6c-4.5,0-6.1,2.1-6.1,6.6v5.4c0,4.7,1.9,6.3,6.1,9.4
				C154.9,27.7,156.8,26,156.8,21.3z"/>
			<path class="st2" d="M195.4,11.4h-22.8V1.3h35V10l-20.8,60.8h-12.1L195.4,11.4L195.4,11.4L195.4,11.4z"/>
			<path class="st2" d="M208.7,18.8c0-10.7,6.1-18.7,19.3-18.7c13.2,0,19.3,8,19.3,18.7v34.4c0,10.7-6.1,18.7-19.3,18.7
				c-13.2,0-19.3-8-19.3-18.7V18.8z M220.4,54.2c0,5,2.4,7.6,7.6,7.6s7.6-2.6,7.6-7.6V17.9c0-5-2.4-7.6-7.6-7.6s-7.6,2.6-7.6,7.6
				V54.2z"/>
			<path class="st2" d="M252.9,70.7V1.3h33.8v10.4h-21.9v18.5h20v10.4h-20v19.6h21.9v10.4H252.9z"/>
		</g>
	</g>
</g>
</svg>
